<?xml version="1.0" encoding="UTF-8"?>
<svg width="48px" height="18px" viewBox="0 0 48 18" version="1.1" xmlns="http://www.w3.org/2000/svg" xmlns:xlink="http://www.w3.org/1999/xlink">
    <!-- Generator: Sketch 47.1 (45422) - http://www.bohemiancoding.com/sketch -->
    <title>123 logo 27px</title>
    <desc>Created with Sketch.</desc>
    <defs></defs>
    <g id="Small-modifications" stroke="none" stroke-width="1" fill="none" fill-rule="evenodd">
        <g id="123-logo-27px" fill-rule="nonzero" fill="#9C9C9C">
            <g id="3" transform="translate(29.825243, 0.000000)">
                <path d="M17.845137,11.896758 C17.845137,15.1819569 15.1819569,17.845137 11.896758,17.845137 L0.991396498,17.845137 L0.991396498,15.862344 C0.991396498,14.7672777 1.87912316,13.879551 2.97418949,13.879551 L11.896758,13.879551 C12.9918243,13.879551 13.879551,12.9918243 13.879551,11.896758 C13.879551,10.925799 13.1816397,10.1178459 12.2601,9.94718152 L15.2347505,6.97253103 C16.8101761,8.04254798 17.845137,9.84878899 17.845137,11.896758 Z" id="Bottom"></path>
                <path d="M14.0740933,0 C14.7061883,-6.77527121e-16 15.3123944,0.251098768 15.759353,0.698057443 C16.6900963,1.62880069 16.6900963,3.13783367 15.759353,4.06857692 L9.91396498,9.91396498 L4.36214459,9.91396498 L10.3105236,3.96558599 L0,3.96558599 L0,2.81771832e-15 L14.0740933,2.81771832e-15 L14.0740933,0 Z" id="Top"></path>
            </g>
            <g id="2" transform="translate(9.786408, 0.000000)">
                <polygon id="Bottom" points="0 13.9805825 17.9750347 13.9805825 17.9750347 17.9750347 0 17.9750347"></polygon>
                <path d="M17.9750347,5.99167822 C17.9750347,9.3007907 15.2924689,11.9833564 11.9833564,11.9833564 L0,11.9833564 L0,9.98613037 C-1.35083135e-16,8.8830929 0.894188571,7.9889043 1.99722607,7.9889043 L11.9833564,7.9889043 C13.0863939,7.9889043 13.9805825,7.09471569 13.9805825,5.99167822 C13.9805825,4.88864072 13.0863939,3.99445215 11.9833564,3.99445215 L0,3.99445215 L0,0 L11.9833564,0 C15.2924689,-6.07874106e-16 17.9750347,2.68256571 17.9750347,5.99167822 Z" id="Top"></path>
            </g>
            <g id="1">
                <polygon id="Bottom" points="3.00352075 8.12945128 7.00821509 6.14665829 7.00821509 17.845137 3.00352075 17.845137"></polygon>
                <path d="M7.00821509,-2.27373675e-13 L7.00821509,3.96558599 L0.000466214229,7.43524287 L0.00014409526,4.69548071 C5.57858818e-05,3.94437097 0.428576021,3.25769239 1.10701437,2.9217859 L7.00821509,-2.27373675e-13 Z" id="Top"></path>
            </g>
        </g>
    </g>
</svg>